<svg width="512" height="342" viewBox="0 0 512 342" version="1.1" xmlns="http://www.w3.org/2000/svg" xmlns:xlink="http://www.w3.org/1999/xlink">
<g id="Canvas" fill="none">
<g id="noun_1138607_cc">
<g id="Group">
<g id="Group_2">
<g id="Group_3">
<g id="Vector">
<path d="M 211.909 7.997L 3.99801 7.997C 1.78901 7.997 -5.37109e-06 6.209 -5.37109e-06 3.998C -5.37109e-06 1.788 1.78901 3.66211e-06 3.99801 3.66211e-06L 211.908 3.66211e-06C 214.119 3.66211e-06 215.906 1.788 215.906 3.998C 215.907 6.209 214.12 7.997 211.909 7.997Z" transform="translate(295.872 47.97)" fill="black"/>
</g>
</g>
</g>
<g id="Group_4">
<g id="Group_5">
<g id="Vector_2">
<path d="M 43.986 7.997L 3.999 7.997C 1.789 7.997 -3.2959e-06 6.209 -3.2959e-06 3.998C -3.2959e-06 1.788 1.789 3.66211e-06 3.999 3.66211e-06L 43.986 3.66211e-06C 46.195 3.66211e-06 47.984 1.788 47.984 3.998C 47.984 6.209 46.195 7.997 43.986 7.997Z" transform="translate(231.896 47.97)" fill="black"/>
</g>
</g>
</g>
<g id="Group_6">
<g id="Group_7">
<g id="Vector_3">
<path d="M 139.939 7.997L 3.999 7.997C 1.789 7.997 1.83105e-06 6.209 1.83105e-06 3.998C 1.83105e-06 1.788 1.788 3.66211e-06 3.999 3.66211e-06L 139.939 3.66211e-06C 142.149 3.66211e-06 143.938 1.788 143.938 3.998C 143.938 6.209 142.149 7.997 139.939 7.997Z" transform="translate(71.97 47.97)" fill="black"/>
</g>
</g>
</g>
<g id="Group_8">
<g id="Group_9">
<g id="Vector_4">
<path d="M 3.9969 119.949C 3.2469 119.949 2.50691 119.746 1.83491 119.317C -0.0170922 118.122 -0.5631 115.646 0.6399 113.788L 72.6089 1.836C 73.7969 -0.0180036 76.2709 -0.560993 78.1299 0.637007C 79.9799 1.82801 80.5259 4.304 79.3249 6.162L 7.3559 118.113C 6.5979 119.302 5.3089 119.949 3.9969 119.949Z" transform="translate(431.815 47.969)" fill="black"/>
</g>
</g>
</g>
<g id="Group_10">
<g id="Group_11">
<g id="Vector_5">
<path d="M 3.9969 119.95C 3.2469 119.95 2.50691 119.747 1.83491 119.31C -0.0170922 118.122 -0.5631 115.647 0.6399 113.789L 72.6089 1.83775C 73.7969 -0.0132496 76.2709 -0.567257 78.1299 0.642743C 79.9799 1.83074 80.5259 4.30574 79.3249 6.16374L 7.3559 118.115C 6.5979 119.302 5.3089 119.95 3.9969 119.95Z" transform="translate(431.815 175.921)" fill="black"/>
</g>
</g>
</g>
<g id="Group_12">
<g id="Group_13">
<g id="Vector_6">
<path d="M 3.99392 119.949C 3.25192 119.949 2.50592 119.746 1.83492 119.317C -0.0200768 118.122 -0.559077 115.646 0.635923 113.788L 72.6049 1.836C 73.7919 -0.0180036 76.2679 -0.560993 78.1299 0.637007C 79.9839 1.82801 80.5229 4.304 79.3279 6.162L 7.35992 118.114C 6.59892 119.302 5.30992 119.949 3.99392 119.949Z" transform="translate(0.00109863 47.969)" fill="black"/>
</g>
</g>
</g>
<g id="Group_14">
<g id="Group_15">
<g id="Vector_7">
<path d="M 3.99341 54.2112C 3.25141 54.2112 2.50641 54.0082 1.83441 53.5742C -0.0195863 52.3842 -0.559588 49.9083 0.636412 48.0503L 30.3384 1.83625C 31.5334 -0.0187486 34.0014 -0.560754 35.8634 0.637246C 37.7174 1.82825 38.2574 4.30426 37.0624 6.16226L 7.36041 52.3762C 6.59741 53.5632 5.30941 54.2112 3.99341 54.2112Z" transform="translate(50.2616 97.7217)" fill="black"/>
</g>
</g>
</g>
<g id="Group_16">
<g id="Group_17">
<g id="Vector_8">
<path d="M 435.812 7.996L 3.999 7.996C 1.789 7.996 -5.96046e-10 6.20799 -5.96046e-10 3.99799C -5.96046e-10 1.78799 1.789 -4.88281e-07 3.999 -4.88281e-07L 435.811 -4.88281e-07C 438.022 -4.88281e-07 439.809 1.78799 439.809 3.99799C 439.809 6.20799 438.023 7.996 435.812 7.996Z" transform="translate(0 159.922)" fill="black"/>
</g>
</g>
</g>
<g id="Group_18">
<g id="Group_19">
<g id="Vector_9">
<path d="M 3.9985 15.9935C 2.9755 15.9935 1.9525 15.6025 1.1715 14.8225C -0.390503 13.2605 -0.390503 10.7305 1.1715 9.1685L 9.1685 1.1715C 10.7305 -0.390495 13.2605 -0.390495 14.8215 1.1715C 16.3835 2.7335 16.3835 5.2635 14.8215 6.8255L 6.8255 14.8225C 6.0445 15.6025 5.0215 15.9935 3.9985 15.9935Z" transform="translate(95.9595 95.9495)" fill="black"/>
</g>
</g>
</g>
<g id="Group_20">
<g id="Group_21">
<g id="Vector_10">
<path d="M 11.9945 15.9935C 10.9715 15.9935 9.9485 15.6025 9.1675 14.8225L 1.1715 6.8255C -0.390501 5.2635 -0.390501 2.7335 1.1715 1.1715C 2.7335 -0.390495 5.2635 -0.390495 6.8245 1.1715L 14.8215 9.1685C 16.3835 10.7305 16.3835 13.2605 14.8215 14.8225C 14.0405 15.6025 13.0175 15.9935 11.9945 15.9935Z" transform="translate(103.956 95.9495)" fill="black"/>
</g>
</g>
</g>
<g id="Group_22">
<g id="Group_23">
<g id="Vector_11">
<path d="M 3.9985 15.9935C 2.9755 15.9935 1.9525 15.6025 1.1715 14.8225C -0.390499 13.2605 -0.390499 10.7305 1.1715 9.1685L 9.1685 1.1715C 10.7305 -0.390495 13.2605 -0.390495 14.8225 1.1715C 16.3845 2.7335 16.3845 5.2635 14.8225 6.8255L 6.8265 14.8225C 6.0445 15.6025 5.0215 15.9935 3.9985 15.9935Z" transform="translate(111.953 95.9495)" fill="black"/>
</g>
</g>
</g>
<g id="Group_24">
<g id="Group_25">
<g id="Vector_12">
<path d="M 11.9955 15.9935C 10.9725 15.9935 9.9495 15.6025 9.1685 14.8225L 1.1715 6.8255C -0.390497 5.2635 -0.390497 2.7335 1.1715 1.1715C 2.7335 -0.390495 5.2635 -0.390495 6.8255 1.1715L 14.8225 9.1685C 16.3845 10.7305 16.3845 13.2605 14.8225 14.8225C 14.0415 15.6025 13.0185 15.9935 11.9955 15.9935Z" transform="translate(119.948 95.9495)" fill="black"/>
</g>
</g>
</g>
<g id="Group_26">
<g id="Group_27">
<g id="Vector_13">
<path d="M 3.9985 15.9935C 2.9755 15.9935 1.9525 15.6025 1.1715 14.8225C -0.390495 13.2605 -0.390495 10.7305 1.1715 9.1685L 9.1685 1.1715C 10.7305 -0.390495 13.2605 -0.390495 14.8225 1.1715C 16.3845 2.7335 16.3845 5.2635 14.8225 6.8255L 6.8255 14.8225C 6.0445 15.6025 5.0215 15.9935 3.9985 15.9935Z" transform="translate(127.945 95.9495)" fill="black"/>
</g>
</g>
</g>
<g id="Group_28">
<g id="Group_29">
<g id="Vector_14">
<path d="M 11.9955 15.9935C 10.9725 15.9935 9.9495 15.6025 9.1685 14.8225L 1.17151 6.8255C -0.390493 5.2635 -0.390493 2.7335 1.17151 1.1715C 2.73351 -0.390495 5.2635 -0.390495 6.8255 1.1715L 14.8225 9.1685C 16.3845 10.7305 16.3845 13.2605 14.8225 14.8225C 14.0415 15.6025 13.0185 15.9935 11.9955 15.9935Z" transform="translate(135.942 95.9495)" fill="black"/>
</g>
</g>
</g>
<g id="Group_30">
<g id="Group_31">
<g id="Vector_15">
<path d="M 3.9985 15.9935C 2.9755 15.9935 1.9525 15.6025 1.1715 14.8225C -0.390499 13.2605 -0.390499 10.7305 1.1715 9.1685L 9.1685 1.1715C 10.7305 -0.390495 13.2605 -0.390495 14.8225 1.1715C 16.3845 2.7335 16.3845 5.2635 14.8225 6.8255L 6.82549 14.8225C 6.04449 15.6025 5.0215 15.9935 3.9985 15.9935Z" transform="translate(143.938 95.9495)" fill="black"/>
</g>
</g>
</g>
<g id="Group_32">
<g id="Group_33">
<g id="Vector_16">
<path d="M 11.9955 15.9935C 10.9725 15.9935 9.9495 15.6025 9.1685 14.8225L 1.1715 6.8255C -0.390497 5.2635 -0.390497 2.7335 1.1715 1.1715C 2.7335 -0.390495 5.2635 -0.390495 6.8255 1.1715L 14.8215 9.1685C 16.3835 10.7305 16.3835 13.2605 14.8215 14.8225C 14.0415 15.6025 13.0185 15.9935 11.9955 15.9935Z" transform="translate(151.935 95.9495)" fill="black"/>
</g>
</g>
</g>
<g id="Group_34">
<g id="Group_35">
<g id="Vector_17">
<path d="M 3.99849 15.9935C 2.97549 15.9935 1.9525 15.6025 1.1715 14.8225C -0.390503 13.2605 -0.390503 10.7305 1.1715 9.1685L 9.1675 1.1715C 10.7295 -0.390495 13.2595 -0.390495 14.8215 1.1715C 16.3835 2.7335 16.3835 5.2635 14.8215 6.8255L 6.8245 14.8225C 6.0445 15.6025 5.02149 15.9935 3.99849 15.9935Z" transform="translate(159.932 95.9495)" fill="black"/>
</g>
</g>
</g>
<g id="Group_36">
<g id="Group_37">
<g id="Vector_18">
<path d="M 11.9955 15.9935C 10.9725 15.9935 9.94949 15.6025 9.16849 14.8225L 1.1715 6.8255C -0.3905 5.2635 -0.3905 2.7335 1.1715 1.1715C 2.7335 -0.390495 5.26351 -0.390495 6.82551 1.1715L 14.8215 9.1685C 16.3835 10.7305 16.3835 13.2605 14.8215 14.8225C 14.0415 15.6025 13.0185 15.9935 11.9955 15.9935Z" transform="translate(167.927 95.9495)" fill="black"/>
</g>
</g>
</g>
<g id="Group_38">
<g id="Group_39">
<g id="Vector_19">
<path d="M 3.9985 15.9935C 2.9755 15.9935 1.95249 15.6025 1.17149 14.8225C -0.390506 13.2605 -0.390506 10.7305 1.17149 9.1685L 9.1675 1.1715C 10.7295 -0.390495 13.2595 -0.390495 14.8215 1.1715C 16.3835 2.7335 16.3835 5.2635 14.8215 6.8255L 6.82449 14.8225C 6.04449 15.6025 5.0215 15.9935 3.9985 15.9935Z" transform="translate(175.924 95.9495)" fill="black"/>
</g>
</g>
</g>
<g id="Group_40">
<g id="Group_41">
<g id="Vector_20">
<path d="M 11.9955 15.9935C 10.9725 15.9935 9.9495 15.6025 9.1685 14.8225L 1.1715 6.8255C -0.390504 5.2635 -0.390504 2.7335 1.1715 1.1715C 2.7335 -0.390495 5.2635 -0.390495 6.8255 1.1715L 14.8215 9.1685C 16.3835 10.7305 16.3835 13.2605 14.8215 14.8225C 14.0415 15.6025 13.0185 15.9935 11.9955 15.9935Z" transform="translate(183.921 95.9495)" fill="black"/>
</g>
</g>
</g>
<g id="Group_42">
<g id="Group_43">
<g id="Vector_21">
<path d="M 3.9985 15.9935C 2.9755 15.9935 1.95251 15.6025 1.17151 14.8225C -0.390495 13.2605 -0.390495 10.7305 1.17151 9.1685L 9.16751 1.1715C 10.7295 -0.390495 13.2595 -0.390495 14.8215 1.1715C 16.3835 2.7335 16.3835 5.2635 14.8215 6.8255L 6.8245 14.8225C 6.0445 15.6025 5.0215 15.9935 3.9985 15.9935Z" transform="translate(191.917 95.9495)" fill="black"/>
</g>
</g>
</g>
<g id="Group_44">
<g id="Group_45">
<g id="Vector_22">
<path d="M 11.9955 15.9935C 10.9735 15.9935 9.9495 15.6025 9.1685 14.8225L 1.17151 6.8255C -0.390493 5.2635 -0.390493 2.7335 1.17151 1.1715C 2.73351 -0.390495 5.2635 -0.390495 6.8255 1.1715L 14.8225 9.1685C 16.3845 10.7305 16.3845 13.2605 14.8225 14.8225C 14.0415 15.6025 13.0185 15.9935 11.9955 15.9935Z" transform="translate(199.914 95.9495)" fill="black"/>
</g>
</g>
</g>
<g id="Group_46">
<g id="Group_47">
<g id="Vector_23">
<path d="M 3.9985 15.9935C 2.9765 15.9935 1.9525 15.6025 1.1715 14.8225C -0.390499 13.2605 -0.390499 10.7305 1.1715 9.1685L 9.1685 1.1715C 10.7305 -0.390495 13.2605 -0.390495 14.8225 1.1715C 16.3845 2.7335 16.3845 5.2635 14.8225 6.8255L 6.82549 14.8225C 6.04449 15.6025 5.0215 15.9935 3.9985 15.9935Z" transform="translate(207.911 95.9495)" fill="black"/>
</g>
</g>
</g>
<g id="Group_48">
<g id="Group_49">
<g id="Vector_24">
<path d="M 11.9955 15.9935C 10.9735 15.9935 9.9495 15.6025 9.1685 14.8225L 1.1715 6.8255C -0.390496 5.2635 -0.390496 2.7335 1.1715 1.1715C 2.7335 -0.390495 5.2635 -0.390495 6.8255 1.1715L 14.8225 9.1685C 16.3845 10.7305 16.3845 13.2605 14.8225 14.8225C 14.0415 15.6025 13.0195 15.9935 11.9955 15.9935Z" transform="translate(215.906 95.9495)" fill="black"/>
</g>
</g>
</g>
<g id="Group_50">
<g id="Group_51">
<g id="Vector_25">
<path d="M 3.99849 15.9935C 2.97649 15.9935 1.9525 15.6025 1.1715 14.8225C -0.390502 13.2605 -0.390502 10.7305 1.1715 9.1685L 9.16851 1.1715C 10.7305 -0.390495 13.2605 -0.390495 14.8225 1.1715C 16.3845 2.7335 16.3845 5.2635 14.8225 6.8255L 6.8255 14.8225C 6.0445 15.6025 5.02249 15.9935 3.99849 15.9935Z" transform="translate(223.904 95.9495)" fill="black"/>
</g>
</g>
</g>
<g id="Group_52">
<g id="Group_53">
<g id="Vector_26">
<path d="M 11.9945 15.9935C 10.9715 15.9935 9.94849 15.6025 9.16749 14.8225L 1.17151 6.8255C -0.390493 5.2635 -0.390493 2.7335 1.17151 1.1715C 2.73351 -0.390495 5.2635 -0.390495 6.8255 1.1715L 14.8225 9.1685C 16.3845 10.7305 16.3845 13.2605 14.8225 14.8225C 14.0405 15.6025 13.0185 15.9935 11.9945 15.9935Z" transform="translate(231.901 95.9495)" fill="black"/>
</g>
</g>
</g>
<g id="Group_54">
<g id="Group_55">
<g id="Vector_27">
<path d="M 3.9985 15.9935C 2.9755 15.9935 1.95249 15.6025 1.17149 14.8225C -0.390506 13.2605 -0.390506 10.7305 1.17149 9.1685L 9.1685 1.1715C 10.7305 -0.390495 13.2605 -0.390495 14.8215 1.1715C 16.3835 2.7335 16.3835 5.2635 14.8215 6.8255L 6.8255 14.8225C 6.0445 15.6025 5.0225 15.9935 3.9985 15.9935Z" transform="translate(239.896 95.9495)" fill="black"/>
</g>
</g>
</g>
<g id="Group_56">
<g id="Group_57">
<g id="Vector_28">
<path d="M 3.9985 15.9935C 2.9755 15.9935 1.9525 15.6025 1.1715 14.8215C -0.390501 13.2595 -0.390501 10.7295 1.1715 9.16851L 9.1675 1.1715C 10.7295 -0.390503 13.2595 -0.390503 14.8215 1.1715C 16.3835 2.7335 16.3835 5.2635 14.8215 6.8255L 6.8245 14.8215C 6.0445 15.6035 5.0205 15.9935 3.9985 15.9935Z" transform="translate(71.9705 127.936)" fill="black"/>
</g>
</g>
</g>
<g id="Group_58">
<g id="Group_59">
<g id="Vector_29">
<path d="M 11.9955 15.9935C 10.9725 15.9935 9.9495 15.6025 9.1685 14.8215L 1.1715 6.8255C -0.390498 5.2635 -0.390498 2.7335 1.1715 1.1715C 2.7335 -0.390503 5.2635 -0.390503 6.8255 1.1715L 14.8215 9.16851C 16.3835 10.7305 16.3835 13.2605 14.8215 14.8215C 14.0425 15.6035 13.0185 15.9935 11.9955 15.9935Z" transform="translate(79.9655 127.936)" fill="black"/>
</g>
</g>
</g>
<g id="Group_60">
<g id="Group_61">
<g id="Vector_30">
<path d="M 3.9985 15.9935C 2.9755 15.9935 1.9525 15.6025 1.1715 14.8215C -0.390497 13.2595 -0.390497 10.7295 1.1715 9.16851L 9.1675 1.1715C 10.7295 -0.390503 13.2595 -0.390503 14.8215 1.1715C 16.3835 2.7335 16.3835 5.2635 14.8215 6.8255L 6.8245 14.8215C 6.0455 15.6035 5.0215 15.9935 3.9985 15.9935Z" transform="translate(87.9625 127.936)" fill="black"/>
</g>
</g>
</g>
<g id="Group_62">
<g id="Group_63">
<g id="Vector_31">
<path d="M 11.9955 15.9935C 10.9725 15.9935 9.9495 15.6025 9.1685 14.8215L 1.1715 6.8255C -0.390502 5.2635 -0.390502 2.7335 1.1715 1.1715C 2.7335 -0.390503 5.2635 -0.390503 6.8255 1.1715L 14.8215 9.16851C 16.3835 10.7305 16.3835 13.2605 14.8215 14.8215C 14.0415 15.6035 13.0185 15.9935 11.9955 15.9935Z" transform="translate(95.9585 127.936)" fill="black"/>
</g>
</g>
</g>
<g id="Group_64">
<g id="Group_65">
<g id="Vector_32">
<path d="M 3.9985 15.9935C 2.9755 15.9935 1.9525 15.6025 1.1715 14.8215C -0.390501 13.2595 -0.390501 10.7295 1.1715 9.16851L 9.1675 1.1715C 10.7295 -0.390503 13.2595 -0.390503 14.8215 1.1715C 16.3835 2.7335 16.3835 5.2635 14.8215 6.8255L 6.8245 14.8215C 6.0445 15.6035 5.0215 15.9935 3.9985 15.9935Z" transform="translate(103.956 127.936)" fill="black"/>
</g>
</g>
</g>
<g id="Group_66">
<g id="Group_67">
<g id="Vector_33">
<path d="M 11.9955 15.9935C 10.9735 15.9935 9.9495 15.6025 9.1685 14.8215L 1.1715 6.8255C -0.390498 5.2635 -0.390498 2.7335 1.1715 1.1715C 2.7335 -0.390503 5.2635 -0.390503 6.8255 1.1715L 14.8215 9.16851C 16.3835 10.7305 16.3835 13.2605 14.8215 14.8215C 14.0425 15.6035 13.0195 15.9935 11.9955 15.9935Z" transform="translate(111.951 127.936)" fill="black"/>
</g>
</g>
</g>
<g id="Group_68">
<g id="Group_69">
<g id="Vector_34">
<path d="M 3.9985 15.9935C 2.9765 15.9935 1.9525 15.6025 1.1715 14.8215C -0.390497 13.2595 -0.390497 10.7295 1.1715 9.16851L 9.1685 1.1715C 10.7305 -0.390503 13.2605 -0.390503 14.8225 1.1715C 16.3845 2.7335 16.3845 5.2635 14.8225 6.8255L 6.8255 14.8215C 6.0455 15.6035 5.0225 15.9935 3.9985 15.9935Z" transform="translate(119.948 127.936)" fill="black"/>
</g>
</g>
</g>
<g id="Group_70">
<g id="Group_71">
<g id="Vector_35">
<path d="M 11.9955 15.9935C 10.9735 15.9935 9.94951 15.6025 9.16851 14.8215L 1.1715 6.8255C -0.390502 5.2635 -0.390502 2.7335 1.1715 1.1715C 2.7335 -0.390503 5.2635 -0.390503 6.8255 1.1715L 14.8225 9.16851C 16.3845 10.7305 16.3845 13.2605 14.8225 14.8215C 14.0415 15.6035 13.0195 15.9935 11.9955 15.9935Z" transform="translate(127.945 127.936)" fill="black"/>
</g>
</g>
</g>
<g id="Group_72">
<g id="Group_73">
<g id="Vector_36">
<path d="M 3.9985 15.9935C 2.9765 15.9935 1.95251 15.6025 1.17151 14.8215C -0.390493 13.2595 -0.390493 10.7295 1.17151 9.16851L 9.1685 1.1715C 10.7305 -0.390503 13.2605 -0.390503 14.8225 1.1715C 16.3845 2.7335 16.3845 5.2635 14.8225 6.8255L 6.8255 14.8215C 6.0445 15.6035 5.0225 15.9935 3.9985 15.9935Z" transform="translate(135.942 127.936)" fill="black"/>
</g>
</g>
</g>
<g id="Group_74">
<g id="Group_75">
<g id="Vector_37">
<path d="M 11.9955 15.9935C 10.9725 15.9935 9.9495 15.6025 9.1685 14.8215L 1.17149 6.8255C -0.390506 5.2635 -0.390506 2.7335 1.17149 1.1715C 2.73349 -0.390503 5.2635 -0.390503 6.8255 1.1715L 14.8225 9.16851C 16.3845 10.7305 16.3845 13.2605 14.8225 14.8215C 14.0415 15.6035 13.0195 15.9935 11.9955 15.9935Z" transform="translate(143.938 127.936)" fill="black"/>
</g>
</g>
</g>
<g id="Group_76">
<g id="Group_77">
<g id="Vector_38">
<path d="M 3.9985 15.9935C 2.9755 15.9935 1.95249 15.6025 1.17149 14.8215C -0.390506 13.2595 -0.390506 10.7295 1.17149 9.16851L 9.1685 1.1715C 10.7305 -0.390503 13.2605 -0.390503 14.8215 1.1715C 16.3835 2.7335 16.3835 5.2635 14.8215 6.8255L 6.8255 14.8215C 6.0445 15.6035 5.0225 15.9935 3.9985 15.9935Z" transform="translate(239.896 127.936)" fill="black"/>
</g>
</g>
</g>
<g id="Group_78">
<g id="Group_79">
<g id="Vector_39">
<path d="M 11.9945 15.9935C 10.9735 15.9935 9.9495 15.6025 9.1685 14.8215L 1.1715 6.8255C -0.390497 5.2635 -0.390497 2.7335 1.1715 1.1715C 2.7335 -0.390503 5.2635 -0.390503 6.8245 1.1715L 14.8225 9.16851C 16.3835 10.7305 16.3835 13.2605 14.8225 14.8215C 14.0415 15.6035 13.0175 15.9935 11.9945 15.9935Z" transform="translate(247.893 127.936)" fill="black"/>
</g>
</g>
</g>
<g id="Group_80">
<g id="Group_81">
<g id="Vector_40">
<path d="M 3.99749 15.9935C 2.97649 15.9935 1.9525 15.6025 1.1715 14.8215C -0.390503 13.2595 -0.390503 10.7295 1.1715 9.16851L 9.1675 1.1715C 10.7295 -0.390503 13.2595 -0.390503 14.8215 1.1715C 16.3835 2.7335 16.3835 5.2635 14.8215 6.8255L 6.82549 14.8215C 6.04449 15.6035 5.02049 15.9935 3.99749 15.9935Z" transform="translate(255.891 127.936)" fill="black"/>
</g>
</g>
</g>
<g id="Group_82">
<g id="Group_83">
<g id="Vector_41">
<path d="M 11.9948 15.9935C 10.9718 15.9935 9.94775 15.6025 9.16675 14.8215L 1.17075 6.8255C -0.390251 5.2635 -0.390251 2.7335 1.17075 1.1715C 2.73275 -0.390503 5.26274 -0.390503 6.82474 1.1715L 14.8207 9.16851C 16.3827 10.7305 16.3827 13.2605 14.8207 14.8215C 14.0397 15.6035 13.0188 15.9935 11.9948 15.9935Z" transform="translate(263.887 127.936)" fill="black"/>
</g>
</g>
</g>
<g id="Group_84">
<g id="Group_85">
<g id="Vector_42">
<path d="M 3.99875 15.9935C 2.97575 15.9935 1.95175 15.6025 1.17075 14.8215C -0.390249 13.2595 -0.390249 10.7295 1.17075 9.16851L 9.16874 1.1715C 10.7297 -0.390503 13.2607 -0.390503 14.8207 1.1715C 16.3827 2.7335 16.3827 5.2635 14.8207 6.8255L 6.82474 14.8215C 6.04374 15.6035 5.02275 15.9935 3.99875 15.9935Z" transform="translate(271.883 127.936)" fill="black"/>
</g>
</g>
</g>
<g id="Group_86">
<g id="Group_87">
<g id="Vector_43">
<path d="M 11.9935 15.9935C 10.9705 15.9935 9.94849 15.6025 9.16749 14.8215L 1.17149 6.8255C -0.390513 5.2635 -0.390513 2.7335 1.17149 1.1715C 2.73249 -0.390503 5.2635 -0.390503 6.8235 1.1715L 14.8215 9.16851C 16.3825 10.7305 16.3825 13.2605 14.8215 14.8215C 14.0405 15.6035 13.0175 15.9935 11.9935 15.9935Z" transform="translate(279.88 127.936)" fill="black"/>
</g>
</g>
</g>
<g id="Group_88">
<g id="Group_89">
<g id="Vector_44">
<path d="M 11.9945 15.9935C 10.9735 15.9935 9.9495 15.6025 9.1685 14.8225L 1.1715 6.8255C -0.390497 5.2635 -0.390497 2.7335 1.1715 1.1715C 2.7335 -0.390495 5.2635 -0.390495 6.8245 1.1715L 14.8225 9.1685C 16.3835 10.7305 16.3835 13.2605 14.8225 14.8225C 14.0415 15.6025 13.0175 15.9935 11.9945 15.9935Z" transform="translate(247.893 95.9495)" fill="black"/>
</g>
</g>
</g>
<g id="Group_90">
<g id="Group_91">
<g id="Vector_45">
<path d="M 3.99749 15.9935C 2.97649 15.9935 1.9525 15.6025 1.1715 14.8225C -0.390503 13.2605 -0.390503 10.7305 1.1715 9.1685L 9.1675 1.1715C 10.7295 -0.390495 13.2595 -0.390495 14.8215 1.1715C 16.3835 2.7335 16.3835 5.2635 14.8215 6.8255L 6.82549 14.8225C 6.04449 15.6025 5.02049 15.9935 3.99749 15.9935Z" transform="translate(255.891 95.9495)" fill="black"/>
</g>
</g>
</g>
<g id="Group_92">
<g id="Group_93">
<g id="Vector_46">
<path d="M 11.9948 15.9935C 10.9718 15.9935 9.94775 15.6025 9.16675 14.8225L 1.17075 6.8255C -0.390251 5.2635 -0.390251 2.7335 1.17075 1.1715C 2.73275 -0.390495 5.26274 -0.390495 6.82474 1.1715L 14.8207 9.1685C 16.3827 10.7305 16.3827 13.2605 14.8207 14.8225C 14.0397 15.6025 13.0188 15.9935 11.9948 15.9935Z" transform="translate(263.887 95.9495)" fill="black"/>
</g>
</g>
</g>
<g id="Group_94">
<g id="Group_95">
<g id="Vector_47">
<path d="M 3.99875 15.9935C 2.97575 15.9935 1.95175 15.6025 1.17075 14.8225C -0.390249 13.2605 -0.390249 10.7305 1.17075 9.1685L 9.16874 1.1715C 10.7297 -0.390495 13.2607 -0.390495 14.8207 1.1715C 16.3827 2.7335 16.3827 5.2635 14.8207 6.8255L 6.82474 14.8225C 6.04374 15.6025 5.02275 15.9935 3.99875 15.9935Z" transform="translate(271.883 95.9495)" fill="black"/>
</g>
</g>
</g>
<g id="Group_96">
<g id="Group_97">
<g id="Vector_48">
<path d="M 11.9935 15.9935C 10.9705 15.9935 9.94849 15.6025 9.16749 14.8225L 1.17149 6.8255C -0.390513 5.2635 -0.390513 2.7335 1.17149 1.1715C 2.73249 -0.390495 5.2635 -0.390495 6.8235 1.1715L 14.8215 9.1685C 16.3825 10.7305 16.3825 13.2605 14.8215 14.8225C 14.0405 15.6025 13.0175 15.9935 11.9935 15.9935Z" transform="translate(279.88 95.9495)" fill="black"/>
</g>
</g>
</g>
<g id="Group_98">
<g id="Group_99">
<g id="Vector_49">
<path d="M 3.99751 15.9935C 2.97451 15.9935 1.95249 15.6025 1.17149 14.8225C -0.390511 13.2605 -0.390511 10.7305 1.17149 9.1685L 9.16749 1.1715C 10.7295 -0.390495 13.2595 -0.390495 14.8215 1.1715C 16.3825 2.7335 16.3825 5.2635 14.8215 6.8255L 6.82551 14.8225C 6.04451 15.6025 5.02151 15.9935 3.99751 15.9935Z" transform="translate(287.877 95.9495)" fill="black"/>
</g>
</g>
</g>
<g id="Group_100">
<g id="Group_101">
<g id="Vector_50">
<path d="M 11.9955 15.9935C 10.9725 15.9935 9.9485 15.6025 9.1675 14.8225L 1.1715 6.8255C -0.390501 5.2635 -0.390501 2.7335 1.1715 1.1715C 2.7335 -0.390495 5.26349 -0.390495 6.82549 1.1715L 14.8215 9.1685C 16.3835 10.7305 16.3835 13.2605 14.8215 14.8225C 14.0395 15.6025 13.0165 15.9935 11.9955 15.9935Z" transform="translate(295.874 95.9495)" fill="black"/>
</g>
</g>
</g>
<g id="Group_102">
<g id="Group_103">
<g id="Vector_51">
<path d="M 3.99875 15.9935C 2.97575 15.9935 1.95175 15.6025 1.17075 14.8225C -0.390249 13.2605 -0.390249 10.7305 1.17075 9.1685L 9.16874 1.1715C 10.7297 -0.390495 13.2607 -0.390495 14.8207 1.1715C 16.3827 2.7335 16.3827 5.2635 14.8207 6.8255L 6.82474 14.8225C 6.04274 15.6025 5.01975 15.9935 3.99875 15.9935Z" transform="translate(303.87 95.9495)" fill="black"/>
</g>
</g>
</g>
<g id="Group_104">
<g id="Group_105">
<g id="Vector_52">
<path d="M 11.9935 15.9935C 10.9705 15.9935 9.94849 15.6025 9.16749 14.8225L 1.17149 6.8255C -0.390513 5.2635 -0.390513 2.7335 1.17149 1.1715C 2.73249 -0.390495 5.26349 -0.390495 6.82349 1.1715L 14.8195 9.1685C 16.3815 10.7305 16.3815 13.2605 14.8195 14.8225C 14.0405 15.6025 13.0165 15.9935 11.9935 15.9935Z" transform="translate(311.868 95.9495)" fill="black"/>
</g>
</g>
</g>
<g id="Group_106">
<g id="Group_107">
<g id="Vector_53">
<path d="M 3.99751 15.9935C 2.97451 15.9935 1.95249 15.6025 1.17149 14.8225C -0.390511 13.2605 -0.390511 10.7305 1.17149 9.1685L 9.16749 1.1715C 10.7295 -0.390495 13.2595 -0.390495 14.8215 1.1715C 16.3825 2.7335 16.3825 5.2635 14.8215 6.8255L 6.8235 14.8225C 6.0445 15.6025 5.02051 15.9935 3.99751 15.9935Z" transform="translate(319.864 95.9495)" fill="black"/>
</g>
</g>
</g>
<g id="Group_108">
<g id="Group_109">
<g id="Vector_54">
<path d="M 11.9955 15.9935C 10.9725 15.9935 9.94849 15.6025 9.16749 14.8225L 1.17149 6.8255C -0.390509 5.2635 -0.390509 2.7335 1.17149 1.1715C 2.73349 -0.390495 5.26351 -0.390495 6.82551 1.1715L 14.8215 9.1685C 16.3835 10.7305 16.3835 13.2605 14.8215 14.8225C 14.0405 15.6025 13.0165 15.9935 11.9955 15.9935Z" transform="translate(327.859 95.9495)" fill="black"/>
</g>
</g>
</g>
<g id="Group_110">
<g id="Group_111">
<g id="Vector_55">
<path d="M 3.99875 15.9935C 2.97575 15.9935 1.95174 15.6025 1.17074 14.8225C -0.390257 13.2605 -0.390257 10.7305 1.17074 9.1685L 9.16675 1.1715C 10.7287 -0.390495 13.2607 -0.390495 14.8207 1.1715C 16.3827 2.7335 16.3827 5.2635 14.8207 6.8255L 6.82474 14.8225C 6.04374 15.6025 5.01975 15.9935 3.99875 15.9935Z" transform="translate(335.856 95.9495)" fill="black"/>
</g>
</g>
</g>
<g id="Group_112">
<g id="Group_113">
<g id="Vector_56">
<path d="M 11.9948 15.9935C 10.9718 15.9935 9.94776 15.6025 9.16876 14.8225L 1.17075 6.8255C -0.390254 5.2635 -0.390254 2.7335 1.17075 1.1715C 2.73275 -0.390495 5.26474 -0.390495 6.82474 1.1715L 14.8207 9.1685C 16.3827 10.7305 16.3827 13.2605 14.8207 14.8225C 14.0417 15.6025 13.0178 15.9935 11.9948 15.9935Z" transform="translate(343.852 95.9495)" fill="black"/>
</g>
</g>
</g>
<g id="Group_114">
<g id="Group_115">
<g id="Vector_57">
<path d="M 3.9975 15.9935C 2.9745 15.9935 1.95051 15.6025 1.17151 14.8225C -0.390488 13.2605 -0.390488 10.7305 1.17151 9.1685L 9.16751 1.1715C 10.7295 -0.390495 13.2595 -0.390495 14.8215 1.1715C 16.3825 2.7335 16.3825 5.2635 14.8215 6.8255L 6.82349 14.8225C 6.04449 15.6025 5.0205 15.9935 3.9975 15.9935Z" transform="translate(351.849 95.9495)" fill="black"/>
</g>
</g>
</g>
<g id="Group_116">
<g id="Group_117">
<g id="Vector_58">
<path d="M 11.9935 15.9935C 10.9725 15.9935 9.94849 15.6025 9.16749 14.8225L 1.17151 6.8255C -0.390486 5.2635 -0.390486 2.7335 1.17151 1.1715C 2.73351 -0.390495 5.26351 -0.390495 6.82551 1.1715L 14.8215 9.1685C 16.3825 10.7305 16.3825 13.2605 14.8215 14.8225C 14.0405 15.6025 13.0175 15.9935 11.9935 15.9935Z" transform="translate(359.845 95.9495)" fill="black"/>
</g>
</g>
</g>
<g id="Group_118">
<g id="Group_119">
<g id="Vector_59">
<path d="M 3.99751 15.9935C 2.97651 15.9935 1.95249 15.6025 1.17149 14.8225C -0.390514 13.2605 -0.390514 10.7305 1.17149 9.1685L 9.16749 1.1715C 10.7295 -0.390495 13.2595 -0.390495 14.8215 1.1715C 16.3835 2.7335 16.3835 5.2635 14.8215 6.8255L 6.82551 14.8225C 6.04451 15.6025 5.02151 15.9935 3.99751 15.9935Z" transform="translate(367.842 95.9495)" fill="black"/>
</g>
</g>
</g>
<g id="Group_120">
<g id="Group_121">
<g id="Vector_60">
<path d="M 11.9947 15.9935C 10.9717 15.9935 9.94775 15.6025 9.16875 14.8225L 1.17074 6.8255C -0.390262 5.2635 -0.390262 2.7335 1.17074 1.1715C 2.73274 -0.390495 5.26276 -0.390495 6.82476 1.1715L 14.8208 9.1685C 16.3828 10.7305 16.3828 13.2605 14.8208 14.8225C 14.0398 15.6025 13.0187 15.9935 11.9947 15.9935Z" transform="translate(375.838 95.9495)" fill="black"/>
</g>
</g>
</g>
<g id="Group_122">
<g id="Group_123">
<g id="Vector_61">
<path d="M 3.99749 15.9935C 2.97449 15.9935 1.9505 15.6025 1.1715 14.8225C -0.390496 13.2605 -0.390496 10.7305 1.1715 9.1685L 9.16751 1.1715C 10.7285 -0.390495 13.2595 -0.390495 14.8215 1.1715C 16.3825 2.7335 16.3825 5.2635 14.8215 6.8255L 6.82351 14.8225C 6.04251 15.6025 5.02149 15.9935 3.99749 15.9935Z" transform="translate(383.835 95.9495)" fill="black"/>
</g>
</g>
</g>
<g id="Group_124">
<g id="Group_125">
<g id="Vector_62">
<path d="M 11.9935 15.9935C 10.9725 15.9935 9.94849 15.6025 9.16749 14.8225L 1.17151 6.8255C -0.390486 5.2635 -0.390486 2.7335 1.17151 1.1715C 2.73251 -0.390495 5.26351 -0.390495 6.82551 1.1715L 14.8215 9.1685C 16.3825 10.7305 16.3825 13.2605 14.8215 14.8225C 14.0395 15.6025 13.0165 15.9935 11.9935 15.9935Z" transform="translate(391.833 95.9495)" fill="black"/>
</g>
</g>
</g>
<g id="Group_126">
<g id="Group_127">
<g id="Vector_63">
<path d="M 3.9975 15.9935C 2.9765 15.9935 1.95249 15.6025 1.17149 14.8225C -0.390515 13.2605 -0.390515 10.7305 1.17149 9.1685L 9.16749 1.1715C 10.7295 -0.390495 13.2595 -0.390495 14.8215 1.1715C 16.3835 2.7335 16.3835 5.2635 14.8215 6.8255L 6.82551 14.8225C 6.04351 15.6025 5.0205 15.9935 3.9975 15.9935Z" transform="translate(399.828 95.9495)" fill="black"/>
</g>
</g>
</g>
<g id="Group_128">
<g id="Group_129">
<g id="Vector_64">
<path d="M 11.9947 15.9935C 10.9717 15.9935 9.94774 15.6025 9.16674 14.8225L 1.17074 6.8255C -0.390262 5.2635 -0.390262 2.7335 1.17074 1.1715C 2.73274 -0.390495 5.26276 -0.390495 6.82476 1.1715L 14.8208 9.1685C 16.3828 10.7305 16.3828 13.2605 14.8208 14.8225C 14.0398 15.6025 13.0177 15.9935 11.9947 15.9935Z" transform="translate(407.825 95.9495)" fill="black"/>
</g>
</g>
</g>
<g id="Group_130">
<g id="Group_131">
<g id="Vector_65">
<path d="M 3.99874 15.9935C 2.97574 15.9935 1.95174 15.6025 1.17074 14.8225C -0.39026 13.2605 -0.39026 10.7305 1.17074 9.1685L 9.16876 1.1715C 10.7298 -0.390495 13.2608 -0.390495 14.8208 1.1715C 16.3828 2.7335 16.3828 5.2635 14.8208 6.8255L 6.82476 14.8225C 6.04376 15.6025 5.02174 15.9935 3.99874 15.9935Z" transform="translate(415.821 95.9495)" fill="black"/>
</g>
</g>
</g>
<g id="Group_132">
<g id="Group_133">
<g id="Vector_66">
<path d="M 11.9935 15.9935C 10.9705 15.9935 9.94851 15.6025 9.16751 14.8225L 1.17151 6.8255C -0.390494 5.2635 -0.390494 2.7335 1.17151 1.1715C 2.73251 -0.390495 5.26351 -0.390495 6.82351 1.1715L 14.8215 9.1685C 16.3825 10.7305 16.3825 13.2605 14.8215 14.8225C 14.0405 15.6025 13.0165 15.9935 11.9935 15.9935Z" transform="translate(423.818 95.9495)" fill="black"/>
</g>
</g>
</g>
<g id="Group_134">
<g id="Group_135">
<g id="Vector_67">
<path d="M 3.9975 15.9935C 2.9745 15.9935 1.95251 15.6025 1.17151 14.8225C -0.390492 13.2605 -0.390492 10.7305 1.17151 9.1685L 9.16751 1.1715C 10.7295 -0.390495 13.2595 -0.390495 14.8215 1.1715C 16.3835 2.7335 16.3835 5.2635 14.8215 6.8255L 6.8255 14.8225C 6.0445 15.6025 5.0205 15.9935 3.9975 15.9935Z" transform="translate(431.814 95.9495)" fill="black"/>
</g>
</g>
</g>
<g id="Group_136">
<g id="Group_137">
<g id="Vector_68">
<path d="M 11.9955 15.9935C 10.9725 15.9935 9.94851 15.6025 9.16751 14.8225L 1.17151 6.8255C -0.39049 5.2635 -0.39049 2.7335 1.17151 1.1715C 2.73351 -0.390495 5.2635 -0.390495 6.8255 1.1715L 14.8215 9.1685C 16.3835 10.7305 16.3835 13.2605 14.8215 14.8225C 14.0405 15.6025 13.0175 15.9935 11.9955 15.9935Z" transform="translate(439.811 95.9495)" fill="black"/>
</g>
</g>
</g>
<g id="Group_138">
<g id="Group_139">
<g id="Vector_69">
<path d="M 3.99874 15.9935C 2.97574 15.9935 1.95174 15.6025 1.17074 14.8215C -0.390262 13.2595 -0.390262 10.7295 1.17074 9.16851L 9.16875 1.1715C 10.7298 -0.390503 13.2608 -0.390503 14.8208 1.1715C 16.3828 2.7335 16.3828 5.2635 14.8208 6.8255L 6.82476 14.8215C 6.04376 15.6035 5.02074 15.9935 3.99874 15.9935Z" transform="translate(375.838 127.936)" fill="black"/>
</g>
</g>
</g>
<g id="Group_140">
<g id="Group_141">
<g id="Vector_70">
<path d="M 11.9935 15.9935C 10.9705 15.9935 9.94851 15.6025 9.16751 14.8215L 1.1715 6.8255C -0.390496 5.2635 -0.390496 2.7335 1.1715 1.1715C 2.7325 -0.390503 5.26351 -0.390503 6.82351 1.1715L 14.8215 9.16851C 16.3825 10.7305 16.3825 13.2605 14.8215 14.8215C 14.0405 15.6035 13.0175 15.9935 11.9935 15.9935Z" transform="translate(383.835 127.936)" fill="black"/>
</g>
</g>
</g>
<g id="Group_142">
<g id="Group_143">
<g id="Vector_71">
<path d="M 3.9975 15.9935C 2.9745 15.9935 1.95251 15.6025 1.17151 14.8215C -0.390493 13.2595 -0.390493 10.7295 1.17151 9.16851L 9.16751 1.1715C 10.7295 -0.390503 13.2595 -0.390503 14.8215 1.1715C 16.3825 2.7335 16.3825 5.2635 14.8215 6.8255L 6.8255 14.8215C 6.0445 15.6035 5.0215 15.9935 3.9975 15.9935Z" transform="translate(391.832 127.936)" fill="black"/>
</g>
</g>
</g>
<g id="Group_144">
<g id="Group_145">
<g id="Vector_72">
<path d="M 11.9955 15.9935C 10.9725 15.9935 9.94849 15.6025 9.16749 14.8215L 1.17149 6.8255C -0.390515 5.2635 -0.390515 2.7335 1.17149 1.1715C 2.73349 -0.390503 5.26351 -0.390503 6.82551 1.1715L 14.8215 9.16851C 16.3835 10.7305 16.3835 13.2605 14.8215 14.8215C 14.0405 15.6035 13.0165 15.9935 11.9955 15.9935Z" transform="translate(399.828 127.936)" fill="black"/>
</g>
</g>
</g>
<g id="Group_146">
<g id="Group_147">
<g id="Vector_73">
<path d="M 3.99874 15.9935C 2.97574 15.9935 1.95174 15.6025 1.17074 14.8215C -0.390262 13.2595 -0.390262 10.7295 1.17074 9.16851L 9.16674 1.1715C 10.7287 -0.390503 13.2608 -0.390503 14.8208 1.1715C 16.3828 2.7335 16.3828 5.2635 14.8208 6.8255L 6.82476 14.8215C 6.04376 15.6035 5.01974 15.9935 3.99874 15.9935Z" transform="translate(407.825 127.936)" fill="black"/>
</g>
</g>
</g>
<g id="Group_148">
<g id="Group_149">
<g id="Vector_74">
<path d="M 11.9947 15.9935C 10.9717 15.9935 9.94776 15.6025 9.16876 14.8215L 1.17074 6.8255C -0.39026 5.2635 -0.39026 2.7335 1.17074 1.1715C 2.73274 -0.390503 5.26476 -0.390503 6.82476 1.1715L 14.8208 9.16851C 16.3828 10.7305 16.3828 13.2605 14.8208 14.8215C 14.0418 15.6035 13.0177 15.9935 11.9947 15.9935Z" transform="translate(415.821 127.936)" fill="black"/>
</g>
</g>
</g>
<g id="Group_150">
<g id="Group_151">
<g id="Vector_75">
<path d="M 3.999 135.949C 1.789 135.949 -5.96046e-10 134.161 -5.96046e-10 131.951L -5.96046e-10 3.99799C -5.96046e-10 1.78799 1.789 -4.88281e-07 3.999 -4.88281e-07C 6.209 -4.88281e-07 7.998 1.78799 7.998 3.99799L 7.998 131.95C 7.998 134.16 6.209 135.949 3.999 135.949Z" transform="translate(0 159.922)" fill="black"/>
</g>
</g>
</g>
<g id="Group_152">
<g id="Group_153">
<g id="Vector_76">
<path d="M 3.998 95.966C 1.789 95.966 1.12305e-05 94.178 1.12305e-05 91.968L 1.12305e-05 3.998C 1.12305e-05 1.788 1.789 1.09863e-05 3.998 1.09863e-05C 6.209 1.09863e-05 7.99601 1.788 7.99601 3.998L 7.99601 91.968C 7.99601 94.178 6.209 95.966 3.998 95.966Z" transform="translate(431.814 175.915)" fill="black"/>
</g>
</g>
</g>
<g id="Group_154">
<g id="Group_155">
<g id="Vector_77">
<path d="M 162.51 8L 1.49118 8C 0.667099 8 -2.22259e-10 6.21109 -2.22259e-10 3.99999C -2.22259e-10 1.78888 0.667099 2.44263e-06 1.49118 2.44263e-06L 162.509 2.44263e-06C 163.334 2.44263e-06 164 1.78888 164 3.99999C 164 6.21109 163.334 8 162.51 8Z" transform="translate(136 288)" fill="black"/>
</g>
</g>
</g>
<g id="Group_156">
<g id="Group_157">
<g id="Vector_78">
<path d="M 39.6365 8L 0.363703 8C 0.162707 8 0 6.21109 0 3.99999C 0 1.78888 0.162707 2.44263e-06 0.363703 2.44263e-06L 39.6364 2.44263e-06C 39.8375 2.44263e-06 40 1.78888 40 3.99999C 40 6.21109 39.8376 8 39.6365 8Z" transform="translate(396 288)" fill="black"/>
</g>
</g>
</g>
<g id="Group_158">
<g id="Group_159">
<g id="Vector_79">
<path d="M 35.6728 8L 0.327333 8C 0.146436 8 0 6.21109 0 3.99999C 0 1.78888 0.146436 2.44263e-06 0.327333 2.44263e-06L 35.6728 2.44263e-06C 35.8537 2.44263e-06 36 1.78888 36 3.99999C 36 6.21109 35.8538 8 35.6728 8Z" transform="translate(4 288)" fill="black"/>
</g>
</g>
</g>
<g id="Group_160">
<g id="Group_161">
<g id="Vector_80">
<path d="M 3.99799 135.948C 1.78899 135.948 5.37109e-06 134.16 5.37109e-06 131.95L 5.37109e-06 3.998C 5.37109e-06 1.788 1.78899 -4.5166e-06 3.99799 -4.5166e-06C 6.20899 -4.5166e-06 7.99601 1.788 7.99601 3.998L 7.99601 131.951C 7.99601 134.16 6.20899 135.948 3.99799 135.948Z" transform="translate(503.783 47.971)" fill="black"/>
</g>
</g>
</g>
<g id="Group_162">
<g id="Group_163">
<g id="Vector_81">
<path d="M 67.97 39.982C 65.759 39.982 63.972 38.194 63.972 35.984C 63.972 20.553 51.413 7.996 35.984 7.996C 20.552 7.996 7.996 20.553 7.996 35.984C 7.996 38.194 6.20701 39.982 3.99801 39.982C 1.78701 39.982 -2.68555e-06 38.194 -2.68555e-06 35.984C -2.68555e-06 16.141 16.141 2.44141e-06 35.984 2.44141e-06C 55.826 2.44141e-06 71.968 16.141 71.968 35.984C 71.968 38.194 70.179 39.982 67.97 39.982Z" transform="translate(279.881 0)" fill="black"/>
</g>
</g>
</g>
<g id="Group_164">
<g id="Group_165">
<g id="Vector_82">
<path d="M 3.99799 39.982C 1.78799 39.982 7.56836e-06 38.194 7.56836e-06 35.984C 7.56836e-06 16.141 16.142 2.44141e-06 35.984 2.44141e-06C 44.746 2.44141e-06 53.195 3.189 59.771 8.988C 61.427 10.444 61.591 12.97 60.13 14.63C 58.661 16.297 56.148 16.446 54.491 14.985C 49.368 10.479 42.794 7.996 35.983 7.996C 20.553 7.996 7.99599 20.553 7.99599 35.984C 7.99699 38.194 6.20799 39.982 3.99799 39.982Z" transform="translate(223.904 0)" fill="black"/>
</g>
</g>
</g>
<g id="Group_166">
<g id="Group_167">
<g id="Vector_83">
<path d="M 3.99799 55.969C 1.78799 55.969 7.56836e-06 54.18 7.56836e-06 51.97L 7.56836e-06 3.999C 7.56836e-06 1.789 1.78799 3.05176e-06 3.99799 3.05176e-06C 6.20799 3.05176e-06 7.997 1.789 7.997 3.999L 7.997 51.97C 7.997 54.18 6.20799 55.969 3.99799 55.969Z" transform="translate(223.904 31.985)" fill="black"/>
</g>
</g>
</g>
<g id="Group_168">
<g id="Group_169">
<g id="Vector_84">
<path d="M 3.99801 55.969C 1.78701 55.969 -9.76562e-06 54.18 -9.76562e-06 51.97L -9.76562e-06 3.999C -9.76562e-06 1.789 1.78701 3.05176e-06 3.99801 3.05176e-06C 6.20701 3.05176e-06 7.99599 1.789 7.99599 3.999L 7.99599 51.97C 7.99599 54.18 6.20701 55.969 3.99801 55.969Z" transform="translate(279.88 31.985)" fill="black"/>
</g>
</g>
</g>
<g id="Group_170">
<g id="Group_171">
<g id="Vector_85">
<path d="M 43.982 7.99601L 3.999 7.99601C 1.789 7.99601 -5.49316e-06 6.20801 -5.49316e-06 3.99801C -5.49316e-06 1.78801 1.789 4.76074e-06 3.999 4.76074e-06L 43.982 4.76074e-06C 46.191 4.76074e-06 47.98 1.78801 47.98 3.99801C 47.98 6.20801 46.191 7.99601 43.982 7.99601Z" transform="translate(231.9 71.968)" fill="black"/>
</g>
</g>
</g>
<g id="Group_172">
<g id="Group_173">
<g id="Vector_86">
<path d="M 3.998 39.976C 1.788 39.976 3.479e-06 38.187 3.479e-06 35.977L 3.479e-06 3.999C 3.479e-06 1.789 1.788 3.66211e-06 3.998 3.66211e-06C 6.208 3.66211e-06 7.996 1.789 7.996 3.999L 7.996 35.977C 7.996 38.188 6.208 39.976 3.998 39.976Z" transform="translate(79.967 63.97)" fill="black"/>
</g>
</g>
</g>
</g>
<g id="noun_809308_cc">
<g id="Group_174">
<g id="Vector_87">
<path d="M 50 0C 22.375 0 0 22.375 0 50C 0 77.625 22.375 100 50 100C 77.625 100 100 77.625 100 50C 100 22.375 77.625 0 50 0ZM 50 95C 25.125 95 5 74.875 5 50C 5 25.125 25.125 5 50 5C 74.875 5 95 25.125 95 50C 95 74.875 74.875 95 50 95Z" transform="translate(298 242)" fill="black"/>
</g>
<g id="Vector_88">
<path d="M 2.5 5C 3.88071 5 5 3.88071 5 2.5C 5 1.11929 3.88071 0 2.5 0C 1.11929 0 0 1.11929 0 2.5C 0 3.88071 1.11929 5 2.5 5Z" transform="translate(345.5 289.5)" fill="black"/>
</g>
<g id="Vector_89">
<path d="M 36.25 0C 16.25 0 0 16.25 0 36.25C 0 56.25 16.25 72.5 36.25 72.5C 56.25 72.5 72.5 56.25 72.5 36.25C 72.5 16.25 56.25 0 36.25 0ZM 36.25 5C 46.875 5 56.375 10.375 62 18.5L 44.5 28.625C 42.5 26.375 39.5 25 36.25 25C 33 25 30.125 26.375 28 28.625L 10.5 18.5C 16.125 10.375 25.625 5 36.25 5ZM 36.25 42.5C 32.75 42.5 30 39.75 30 36.25C 30 32.75 32.75 30 36.25 30C 39.75 30 42.5 32.75 42.5 36.25C 42.5 39.75 39.75 42.5 36.25 42.5ZM 5 36.25C 5 31.5 6.125 26.875 8 22.875L 25.5 33C 25.125 34 25 35.125 25 36.25C 25 41.625 28.75 46.125 33.75 47.25L 33.75 67.375C 17.625 66.125 5 52.625 5 36.25ZM 38.75 67.375L 38.75 47.25C 43.75 46.125 47.5 41.625 47.5 36.25C 47.5 35.125 47.375 34 47 32.875L 64.5 22.75C 66.375 26.875 67.5 31.5 67.5 36.25C 67.5 52.625 54.875 66.125 38.75 67.375Z" transform="translate(311.75 255.75)" fill="black"/>
</g>
</g>
</g>
<g id="noun_809308_cc_2">
<g id="Group_175">
<g id="Vector_90">
<path d="M 50 0C 22.375 0 0 22.375 0 50C 0 77.625 22.375 100 50 100C 77.625 100 100 77.625 100 50C 100 22.375 77.625 0 50 0ZM 50 95C 25.125 95 5 74.875 5 50C 5 25.125 25.125 5 50 5C 74.875 5 95 25.125 95 50C 95 74.875 74.875 95 50 95Z" transform="translate(38 242)" fill="black"/>
</g>
<g id="Vector_91">
<path d="M 2.5 5C 3.88071 5 5 3.88071 5 2.5C 5 1.11929 3.88071 0 2.5 0C 1.11929 0 0 1.11929 0 2.5C 0 3.88071 1.11929 5 2.5 5Z" transform="translate(85.5 289.5)" fill="black"/>
</g>
<g id="Vector_92">
<path d="M 36.25 0C 16.25 0 0 16.25 0 36.25C 0 56.25 16.25 72.5 36.25 72.5C 56.25 72.5 72.5 56.25 72.5 36.25C 72.5 16.25 56.25 0 36.25 0ZM 36.25 5C 46.875 5 56.375 10.375 62 18.5L 44.5 28.625C 42.5 26.375 39.5 25 36.25 25C 33 25 30.125 26.375 28 28.625L 10.5 18.5C 16.125 10.375 25.625 5 36.25 5ZM 36.25 42.5C 32.75 42.5 30 39.75 30 36.25C 30 32.75 32.75 30 36.25 30C 39.75 30 42.5 32.75 42.5 36.25C 42.5 39.75 39.75 42.5 36.25 42.5ZM 5 36.25C 5 31.5 6.125 26.875 8 22.875L 25.5 33C 25.125 34 25 35.125 25 36.25C 25 41.625 28.75 46.125 33.75 47.25L 33.75 67.375C 17.625 66.125 5 52.625 5 36.25ZM 38.75 67.375L 38.75 47.25C 43.75 46.125 47.5 41.625 47.5 36.25C 47.5 35.125 47.375 34 47 32.875L 64.5 22.75C 66.375 26.875 67.5 31.5 67.5 36.25C 67.5 52.625 54.875 66.125 38.75 67.375Z" transform="translate(51.75 255.75)" fill="black"/>
</g>
</g>
</g>
</g>
</g>
</svg>

